# xmcd
#
# Track frame offsets:
#	150
#	9377
#	26141
#	50121
#	86098
#	105013
#	128733
#	152779
#	170689
#	178649
#	197820
#	229588
#	235094
#	254875
#	278884
#	297751
#
# Disc length: 4213 seconds
#
# Revision: 1
# Processed by: cddbd v1.5.1PL0 Copyright (c) Steve Scherf et al.
# Submitted via: audiograbber 1.83.01
#
DISCID=dc107310
DTITLE=Hammock - Kenotic
DYEAR=2005
DGENRE=Ambient
TTITLE0=Before The Celebration
TTITLE1=The Air Between Us
TTITLE2=Through A Glass Darkly
TTITLE3=Blankets Of Night
TTITLE4=Winter Light
TTITLE5=Miles To Go Before Sleep
TTITLE6=Wish
TTITLE7=Overcast_sorrow
TTITLE8=Glacial
TTITLE9=Kenotic
TTITLE10=Stars In The Rearview Mirror
TTITLE11=You May Emerge From This More Dead Than Alive
TTITLE12=What Heaven Allows
TTITLE13=The Silence
TTITLE14=Dawn Begins To Creep
TTITLE15=Rising Tide
EXTD=
EXTT0=
EXTT1=
EXTT2=
EXTT3=
EXTT4=
EXTT5=
EXTT6=
EXTT7=
EXTT8=
EXTT9=
EXTT10=
EXTT11=
EXTT12=
EXTT13=
EXTT14=
EXTT15=
PLAYORDER=
